<svg width="56" height="36" viewBox="0 0 56 36" fill="none" xmlns="http://www.w3.org/2000/svg">
<path d="M14.8594 22.457C17.4138 22.457 19.2617 24.2511 19.2617 27.2041C19.2617 30.0301 17.4325 31.95 14.9326 31.9502C13.5195 31.9502 12.5407 31.389 11.9609 30.5557V35.4648H10.0049V22.5664H11.707L11.9072 23.9248C12.5231 23.0917 13.4829 22.4572 14.8594 22.457ZM4.58301 19.0518C7.28239 19.0518 9.07641 20.5734 9.16699 22.9648H7.08301C6.93807 21.6242 5.97799 20.8086 4.58301 20.8086C3.20622 20.8086 2.37305 21.4793 2.37305 22.6025C2.37313 23.6713 3.06146 24.1424 5.43457 24.5771C8.13395 25.0482 9.36621 26.1714 9.36621 28.0918C9.36616 30.3743 7.53634 31.95 4.8916 31.9502C1.97482 31.9502 0.0724667 30.3017 0 27.6748H2.08301C2.20982 29.2328 3.29683 30.1933 4.90918 30.1934C6.37663 30.1934 7.28223 29.4866 7.28223 28.3271C7.2822 27.2221 6.59404 26.7508 4.18457 26.2979C1.48533 25.7906 0.307708 24.7221 0.307617 22.7656C0.307617 20.5554 2.04675 19.0518 4.58301 19.0518ZM24 22.457C26.4275 22.4571 27.8584 23.6351 27.8584 25.8271V29.541C27.8584 29.9939 28.0038 30.1387 28.4023 30.1387H28.8008V31.8418H27.7861C26.5906 31.8418 26.1374 31.3166 26.1191 30.4473C25.5032 31.3529 24.5248 31.9502 23.0938 31.9502C21.083 31.9501 19.6877 30.9542 19.6875 29.2334C19.6875 27.3312 21.0467 26.2618 23.6191 26.2617H25.9023V25.7002C25.9023 24.6676 25.1773 24.0332 23.9092 24.0332C22.7678 24.0332 22.0072 24.5773 21.8623 25.3926H19.9414C20.1407 23.599 21.6629 22.457 24 22.457ZM33.4248 24.2324C33.8778 23.3991 34.7116 22.5664 36.4688 22.5664H37.7158V24.3955H36.1426C34.186 24.3955 33.5342 25.7909 33.5342 27.2402V30.1211H37.7158V31.8418H29.4395V30.1211H31.5586V24.2871H29.4395V22.5664H33.4248V24.2324ZM40.3105 27.0586L44.7129 22.5664H47.0498L43.3359 26.3711L47.2129 31.8418H44.876L41.959 27.7471L40.3105 29.4502V31.8418H38.3545V19.1602H40.3105V27.0586ZM23.5283 27.7109C22.3329 27.711 21.6631 28.1645 21.6631 29.1064C21.6632 29.8853 22.3329 30.4286 23.3652 30.4287C24.9414 30.4287 25.9023 29.4686 25.9023 28.0918V27.7109H23.5283ZM14.5879 24.124C13.0119 24.1241 11.9435 25.3741 11.9434 27.1855C11.9434 29.0334 13.0118 30.2841 14.5879 30.2842C16.1821 30.2842 17.2509 29.0338 17.251 27.2041C17.251 25.3743 16.1822 24.124 14.5879 24.124ZM23.5088 6.38379C24.9034 6.38392 25.8631 6.98206 26.4609 7.92383L26.6602 6.49316H28.3818V15.3877C28.3818 17.9964 26.842 19.5008 23.6719 19.501C21.1899 19.501 19.523 18.3407 19.3418 16.2754H21.334C21.5695 17.3262 22.4758 17.9062 23.8164 17.9062C25.5193 17.9062 26.4434 17.0908 26.4434 15.3154V14.2646C25.8093 15.2248 24.849 15.8047 23.4541 15.8047C20.9359 15.8047 19.124 14.0291 19.124 11.1123C19.1241 8.28625 20.9544 6.38379 23.5088 6.38379ZM48.9492 8.8125L48.9746 8.81445L48.9951 8.81641C49.4242 8.85778 49.7621 9.109 49.9922 9.30176C50.2471 9.51534 50.5495 9.81877 50.8984 10.168L53.082 12.3535L51.8867 13.5508L49.7031 11.3652C49.3306 10.9924 49.0908 10.7535 48.9072 10.5996C48.8931 10.5878 48.8793 10.5771 48.8672 10.5674C48.8654 10.5828 48.863 10.5999 48.8613 10.6182C48.8396 10.8568 48.8383 11.1953 48.8369 11.7227L48.8252 15.9668L47.1338 15.9619L47.1455 11.7188C47.1469 11.2247 47.1475 10.7953 47.1777 10.4639C47.2055 10.1599 47.27 9.7351 47.5566 9.40039L47.5732 9.38086C47.9194 8.98891 48.4276 8.77882 48.9492 8.8125ZM18.4854 15.7686H16.7822L16.583 14.4277C15.967 15.243 15.0067 15.877 13.6299 15.877C11.0757 15.8768 9.2276 14.0836 9.22754 11.1309C9.22754 8.30474 11.0576 6.38391 13.5576 6.38379C14.9707 6.38379 15.9496 6.94545 16.5293 7.79688V3.08691H18.4854V15.7686ZM33.5488 6.38379C36.1939 6.38379 38.0059 8.08709 38.0059 10.8408C38.0059 11.0039 37.9878 11.2941 37.9697 11.584H31.0488V11.6201C31.049 13.1961 32.0819 14.2831 33.6035 14.2832C34.763 14.2832 35.6507 13.685 35.9043 12.6523H37.8613C37.5352 14.4821 35.9404 15.877 33.6758 15.877C30.7773 15.8768 29.0205 13.9926 29.0205 11.1484C29.0207 8.28638 30.8317 6.38402 33.5488 6.38379ZM8.64648 4.93457H2.64941V8.44922H7.7041V10.2432H2.64941V13.9209H8.86328V15.7686H0.566406V3.08691H8.64648V4.93457ZM13.9023 8.05078C12.3081 8.05078 11.2393 9.30108 11.2393 11.1309C11.2393 12.9606 12.3081 14.2109 13.9023 14.2109C15.4783 14.2108 16.5469 12.9604 16.5469 11.167C16.5469 9.3192 15.4783 8.05093 13.9023 8.05078ZM23.7803 8.05078C22.1861 8.05078 21.1173 9.28267 21.1172 11.1123C21.1172 12.9421 22.186 14.1562 23.7803 14.1562C25.3744 14.1562 26.4433 12.9424 26.4434 11.1309C26.4434 9.30115 25.3744 8.05088 23.7803 8.05078ZM44.2686 7.12793C44.7622 7.12927 45.1904 7.12986 45.5215 7.16016C45.8252 7.18797 46.2505 7.25209 46.585 7.53906C46.995 7.89121 47.2127 8.41889 47.1699 8.95801C47.1349 9.39755 46.8783 9.74352 46.6826 9.97754C46.4692 10.2327 46.1664 10.5354 45.8174 10.8848L43.6338 13.0693L42.4375 11.873L44.6211 9.6875C44.9939 9.31442 45.232 9.07439 45.3857 8.89062C45.3976 8.87641 45.4092 8.86374 45.4189 8.85156C45.4034 8.84978 45.3857 8.8474 45.3672 8.8457C45.1288 8.8239 44.7906 8.82272 44.2637 8.82129L40.0234 8.80957L40.0283 7.11719L44.2686 7.12793ZM33.5488 7.95996C32.3352 7.96018 31.2846 8.79387 31.1396 10.1162H35.9951C35.8321 8.73934 34.8895 7.95996 33.5488 7.95996ZM53.5762 4.08008L51.3926 6.26562C51.0198 6.63875 50.7816 6.87872 50.6279 7.0625C50.616 7.07679 50.6045 7.0903 50.5947 7.10254C50.6102 7.10431 50.628 7.10573 50.6465 7.10742C50.8849 7.12921 51.223 7.13138 51.75 7.13281L55.9902 7.14355L55.9854 8.83691L51.7451 8.8252C51.2515 8.82385 50.8233 8.82324 50.4922 8.79297C50.1886 8.76518 49.7632 8.70087 49.4287 8.41406C49.0185 8.06196 48.8011 7.53426 48.8438 6.99512C48.8787 6.55547 49.1353 6.20966 49.3311 5.97559C49.5445 5.72041 49.8482 5.41868 50.1973 5.06934L52.3799 2.88379L53.5762 4.08008ZM48.8467 0.00488281L48.835 4.24902C48.8336 4.7429 48.834 5.17164 48.8037 5.50293C48.7759 5.8068 48.7113 6.23181 48.4248 6.56641C48.073 6.97708 47.5457 7.19512 47.0068 7.15234C46.5677 7.11739 46.2222 6.86095 45.9883 6.66504C45.7334 6.45147 45.431 6.14807 45.082 5.79883L42.8984 3.61328L44.0947 2.41602L46.2783 4.60156C46.6509 4.9745 46.8907 5.2134 47.0742 5.36719C47.0884 5.37903 47.1021 5.38972 47.1143 5.39941C47.116 5.38405 47.1175 5.36691 47.1191 5.34863C47.1409 5.11003 47.1431 4.77157 47.1445 4.24414L47.1553 0L48.8467 0.00488281Z" fill="white"/>
</svg>
